<?xml version="1.0" standalone="no"?>
<!DOCTYPE svg PUBLIC "-//W3C//DTD SVG 20010904//EN"
 "http://www.w3.org/TR/2001/REC-SVG-20010904/DTD/svg10.dtd">
<svg version="1.0" xmlns="http://www.w3.org/2000/svg"
 width="512.000000pt" height="512.000000pt" viewBox="0 0 512.000000 512.000000"
 preserveAspectRatio="xMidYMid meet">

<g transform="translate(0.000000,512.000000) scale(0.100000,-0.100000)"
fill="#000000" stroke="none">
<path d="M1975 5113 c-283 -35 -515 -146 -717 -342 -184 -178 -301 -389 -355
-643 -24 -115 -24 -362 1 -476 50 -232 151 -429 307 -596 418 -447 1081 -520
1595 -176 97 66 253 221 315 315 206 310 267 666 173 1016 -56 210 -158 386
-318 545 -193 193 -421 310 -686 350 -87 13 -242 16 -315 7z"/>
<path d="M1925 2369 c-506 -30 -977 -189 -1322 -446 -247 -185 -422 -427 -490
-680 l-27 -98 -4 -476 c-2 -329 0 -490 8 -518 14 -52 63 -109 115 -132 38 -18
107 -19 1455 -18 l1415 0 -30 22 c-16 12 -73 64 -125 117 -363 363 -492 906
-330 1391 76 230 169 379 348 558 67 68 122 125 120 126 -2 2 -46 16 -98 33
-115 37 -290 76 -426 97 -100 14 -390 36 -449 33 -16 0 -88 -5 -160 -9z"/>
<path d="M3710 2215 c-418 -79 -752 -387 -866 -797 -35 -127 -45 -364 -19
-489 52 -258 176 -468 390 -658 253 -224 628 -304 992 -210 101 26 279 113
368 180 426 321 562 895 325 1370 -147 296 -391 490 -740 589 -98 29 -339 36
-450 15z m320 -750 l0 -235 238 -2 237 -3 0 -120 0 -120 -237 -3 -238 -2 0
-235 0 -235 -110 0 -110 0 0 235 0 235 -235 0 -235 0 0 125 0 125 235 0 235 0
0 235 0 235 110 0 110 0 0 -235z"/>
</g>
</svg>
